<?xml version="1.0" encoding="UTF-8"?>
<svg width="752pt" height="752pt" version="1.1" viewBox="0 0 752 752" xmlns="http://www.w3.org/2000/svg">
 <g>
  <path d="m379.74 368.79 29.008 4.5938c0.125 0.019532 0.24609 0.03125 0.37109 0.03125 0.72266 0 1.4102-0.32812 1.8633-0.90625 0.52734-0.67578 0.65234-1.5859 0.32031-2.375l-3.8477-9.1914c-0.31641-0.75781-1.0039-1.2969-1.8125-1.4258l-25.16-3.9844c-0.68359-0.11719-1.3789 0.085937-1.9102 0.53516-0.52344 0.44922-0.82812 1.1094-0.82812 1.8008v8.582c0 1.168 0.84375 2.1602 1.9961 2.3398z"/>
  <path d="m342.89 373.41c0.125 0 0.24609-0.007812 0.37109-0.03125l29.008-4.5938c1.1523-0.17969 1.9961-1.1719 1.9961-2.3359v-8.582c0-0.69531-0.30469-1.3516-0.82812-1.8008-0.53125-0.44922-1.2305-0.65625-1.9102-0.53516l-25.16 3.9844c-0.80859 0.12891-1.5 0.66406-1.8125 1.4258l-3.8477 9.1914c-0.33203 0.78906-0.20703 1.6992 0.32031 2.375 0.45312 0.57422 1.1445 0.90234 1.8633 0.90234z"/>
  <path d="m481.22 435.09-57.816-17.852-0.003906-0.003906-7.8086-2.418v-11.242l8.5508-7.332c11.992-10.309 18.871-25.289 18.871-41.105v-4.6406h3.2656c11.594 0 21.027-9.4336 21.027-21.027v-9.8984c0-3.8125-1.5039-7.4453-4.2656-10.266-2.7891-2.7266-6.4375-4.2266-10.277-4.2266-0.29688 0-0.57812 0.050781-0.87109 0.066406 1.4609-13.762-0.53125-38.258-1.0234-43.871 16.461-16.582 20.816-41.996 20.996-43.09 0.14844-0.88672-0.22266-1.7773-0.95312-2.3047-0.73047-0.52344-1.6875-0.59766-2.4883-0.17188-0.26953 0.14062-27.434 13.922-86.051 2.4219-23.332-4.5742-40.609-2.2812-51.383 6.8125-7.9141 6.6797-10.055 15.211-10.629 19.715-2.875-0.48438-7.4258-0.46484-11.82 2.75-9.9453 7.2852-13.445 26.738-10.449 57.785-3.4336 0.25781-6.6719 1.6602-9.2227 4.1562-2.7227 2.7852-4.2266 6.418-4.2266 10.227v9.8984c0 11.594 9.4336 21.027 21.027 21.027h3.2656v4.6406c0 15.816 6.8789 30.797 18.879 41.109l8.543 7.3047v11.262l-7.8086 2.418-0.003906 0.003906-57.828 17.855c-23.418 7.4141-39.156 28.875-39.156 53.406v45.699c0 1.3086 1.0586 2.3672 2.3672 2.3672h55.922v-28.676c0-1.3086 1.0586-2.3672 2.3672-2.3672s2.3672 1.0586 2.3672 2.3672v28.676h162.83v-28.676c0-1.3086 1.0586-2.3672 2.3672-2.3672s2.3672 1.0586 2.3672 2.3672v28.676l55.926 0.003906c1.3086 0 2.3672-1.0586 2.3672-2.3672v-45.699c0.003906-24.543-15.754-46.004-39.223-53.414zm-38.203-98.609c0.59766 0.17969 1.2227 0.30469 1.8789 0.30469 3.6406 0 6.6016-2.9609 6.6016-6.6016 0-1.3086-1.0586-2.3672-2.3672-2.3672s-2.3672 1.0586-2.3672 2.3672c0 1.0273-0.83594 1.8633-1.8633 1.8633-1.0273 0-1.8594-0.83594-1.8594-1.8633 0-0.03125-0.015624-0.058594-0.019531-0.09375v-3.0781c0-0.03125 0.019531-0.058594 0.019531-0.09375 0-2.9609 2.4102-5.3711 5.3711-5.3711 2.9609 0 5.3711 2.4102 5.3711 5.3711 0 1.3086 1.0586 2.3672 2.3672 2.3672 1.3086 0 2.3672-1.0586 2.3672-2.3672 0-5.5742-4.5312-10.109-10.105-10.109-1.9023 0-3.6602 0.55859-5.1836 1.4766 0.5-3.7031 2.9688-6.8555 6.6562-8.0273 3.0977-1.0312 7.2188-0.14453 9.8203 2.3945 1.8555 1.8945 2.875 4.3516 2.875 6.918v9.8984c0 8.9844-7.3086 16.289-16.293 16.289h-3.2656zm-104.08-105.25c7.2656-6.2461 19.867-7.8672 37.465-4.8242 1.2891 0.22266 2.1562 1.4492 1.9297 2.7383-0.22266 1.2891-1.4805 2.1445-2.7344 1.9297-19.984-3.457-29.23 0.085937-33.473 3.6602-4.3242 3.6484-4.3672 8.0039-4.3672 8.1875 0 1.3008-1.0391 2.3711-2.3398 2.3828h-0.027344c-1.2852 0-2.3398-1.0156-2.3672-2.3086-0.003907-0.26562-0.066407-6.625 5.9141-11.766zm-29.996 98.887c0 0.023437-0.015625 0.042968-0.015625 0.070312 0 1.0273-0.83594 1.8633-1.8633 1.8633s-1.8594-0.83594-1.8594-1.8633c0-1.3086-1.0586-2.3672-2.3672-2.3672-1.3086 0-2.3672 1.0586-2.3672 2.3672 0 3.6406 2.9609 6.6016 6.5938 6.6016 0.65625 0 1.2773-0.125 1.8789-0.30469v9.2812h-3.2656c-8.9844 0-16.293-7.3086-16.293-16.289v-9.8984c0-2.5664 1.0234-5.0234 2.8398-6.8789 1.8945-1.8555 4.3672-2.875 6.9648-2.875 0.43359 0 0.875 0.042969 1.2148 0.078125 4.2578 0.53906 7.6016 3.793 8.3711 7.8828 0.035156 0.18359 0.027343 0.375 0.050781 0.5625-1.5391-0.94922-3.332-1.5234-5.2695-1.5234-5.5742 0-10.109 4.5352-10.109 10.109 0 1.3086 1.0586 2.3672 2.3672 2.3672s2.3672-1.0586 2.3672-2.3672c0-2.9609 2.4102-5.3711 5.375-5.3711 2.9609 0 5.3711 2.4102 5.3711 5.3711 0 0.023437 0.011719 0.042968 0.015625 0.070312zm21.957 62.535c-10.945-9.4062-17.223-23.082-17.223-37.512v-4.668c0.14844-0.011718 0.25781-0.046875 0.39844-0.0625 0.26562-0.027344 0.52344-0.070312 0.75781-0.11719 0.28125-0.054688 0.54688-0.12891 0.78516-0.21484 0.19922-0.070313 0.39844-0.14844 0.57031-0.23828 0.20703-0.10938 0.39453-0.23828 0.57031-0.37891 0.14453-0.11328 0.28906-0.23438 0.41016-0.37109 0.14844-0.16797 0.27344-0.36719 0.39062-0.56641 0.09375-0.16406 0.19922-0.32422 0.27734-0.51172 0.097656-0.23828 0.17578-0.51562 0.25-0.79297 0.058593-0.21094 0.125-0.41406 0.16797-0.64844 0.0625-0.32031 0.10156-0.69531 0.14453-1.0586 0.03125-0.25781 0.070312-0.5 0.09375-0.78516 0.035156-0.42969 0.054687-0.92969 0.074218-1.418 0.011719-0.28516 0.03125-0.54297 0.042969-0.85156 0.023437-0.8125 0.042969-1.6992 0.0625-2.6641 0.027344-1.4961 0.058594-3.2578 0.12109-5.3398 0.37891-14.691 2.375-18.109 6.4219-19.852 5.4805-2.3438 6.5938-23.148 6.4844-41.414 11.535 2.6406 53.535 11.098 88.641 3.2109 0.25 35.551 4.8945 37.535 6.4375 38.195 4.0547 1.75 6.0547 5.168 6.4336 19.875 0.058593 2.082 0.09375 3.8516 0.12109 5.3516 0.019531 0.98828 0.035157 1.8828 0.0625 2.7109 0.003907 0.16797 0.015625 0.30469 0.023438 0.46875 0.023437 0.63281 0.054687 1.2383 0.097656 1.7773 0.019531 0.21875 0.050781 0.40625 0.070313 0.60938 0.046874 0.42188 0.097656 0.84375 0.16406 1.207 0.039062 0.21094 0.10156 0.39062 0.15234 0.58203 0.078125 0.29688 0.16406 0.59375 0.26953 0.84766 0.074219 0.17578 0.17188 0.32812 0.25781 0.48047 0.12109 0.21094 0.25391 0.41406 0.40625 0.58984 0.11719 0.13281 0.25781 0.25 0.39844 0.35938 0.17578 0.14062 0.36719 0.27344 0.57812 0.38281 0.17188 0.089843 0.36719 0.16797 0.5625 0.23828 0.23828 0.082031 0.50391 0.15625 0.78516 0.21094 0.23438 0.046875 0.48828 0.089844 0.75781 0.12109 0.12891 0.015625 0.22656 0.046875 0.36328 0.058594v4.6719c0 14.434-6.2773 28.105-17.215 37.508l-9.3008 7.9727c-0.023437 0.019531-0.058594 0.015624-0.082031 0.039062l-7.2422 6.2422c-3.7422 3.207-7.9102 5.7148-12.391 7.457-10.348 4.0469-21.906 4.0195-32.105-0.003907-4.4336-1.7031-8.6016-4.2109-12.379-7.4492l-7.293-6.25c-0.007813-0.007813-0.023438-0.007813-0.03125-0.015625zm79.961 14.984v17.5c0 6.4531-3.1836 12.527-8.5078 16.246-7.7539 5.4219-16.887 8.2852-26.395 8.2852-2.3711 0-4.7188-0.17969-7.0273-0.53125-6.9258-1.0586-13.508-3.6875-19.328-7.7539-5.3242-3.7188-8.5039-9.793-8.5039-16.246v-17.527l3.3867 2.8945c4.1914 3.5898 8.8203 6.3711 13.742 8.2656 5.6133 2.2109 11.758 3.3828 17.773 3.3828 6.0547 0 12.027-1.1367 17.766-3.3789 4.9766-1.9336 9.6055-4.7188 13.758-8.2773zm9.4727 17.496c0 9.5547-4.6836 18.531-12.535 24.016-9.3516 6.5352-20.359 9.9883-31.844 9.9883-11.449 0-22.445-3.4531-31.797-9.9922-7.8477-5.4805-12.535-14.457-12.535-24.012v-3.8906l4.7344-1.4688v5.3594c0 8 3.9375 15.523 10.531 20.129 8.5586 5.9805 18.609 9.1406 29.062 9.1406 10.484 0 20.547-3.1602 29.105-9.1367 6.5938-4.6055 10.535-12.129 10.535-20.129v-5.3594l4.7344 1.4688z"/>
  <path d="m490.57 402.95c3.3359-3.3359 3.3359-8.7578 0-12.098-1.668-1.668-3.8555-2.5-6.0469-2.5s-4.3828 0.83203-6.0508 2.5c-3.3359 3.3359-3.3359 8.7617 0 12.098 3.2344 3.2305 8.8633 3.2305 12.098 0z"/>
  <path d="m458.96 392.12c0 16.754 13.582 30.34 30.34 30.34 16.754 0 30.34-13.582 30.34-30.34 0-16.754-13.582-30.34-30.34-30.34-16.758 0.003906-30.34 13.586-30.34 30.34zm16.168-4.625c4.6094-4.6055 11.773-5.0938 16.949-1.5039l7.1914-7.1914h-3.4062c-1.3086 0-2.3672-1.0586-2.3672-2.3672s1.0586-2.3672 2.3672-2.3672h9.125c0.30859 0 0.61328 0.0625 0.90234 0.18359 0.57812 0.23828 1.043 0.70312 1.2812 1.2812 0.12109 0.28906 0.18359 0.59766 0.18359 0.90234v9.125c0 1.3086-1.0586 2.3672-2.3672 2.3672-1.3086 0-2.3672-1.0586-2.3672-2.3672v-3.4141l-7.1953 7.1914c3.5859 5.1758 3.1016 12.344-1.5039 16.949-2.5078 2.5117-5.8477 3.8945-9.3945 3.8945-3.5508 0-6.8867-1.3828-9.3984-3.8945-5.1797-5.1758-5.1797-13.605 0-18.789z"/>
 </g>
</svg>
