<?xml version="1.0" encoding="UTF-8"?>
<svg width="752pt" height="752pt" version="1.1" viewBox="0 0 752 752" xmlns="http://www.w3.org/2000/svg">
 <path d="m556.44 376.98-13.793-4.1484c6.9531-8.3164 11.41-19.008 12.09-30.816l1.0547-18.445c0.89453-15.566-4.5039-30.75-14.809-41.66-9.3906-9.9414-21.902-15.414-35.238-15.414-13.332 0-25.848 5.4766-35.242 15.418-10.301 10.91-15.699 26.094-14.809 41.656l1.0547 18.449c0.67969 11.809 5.1367 22.504 12.094 30.82l-13.797 4.1484c-4.2852 1.293-8.3789 2.9727-12.242 5.0156-2.9102-1.2852-5.9375-2.4102-9.082-3.3594l-18.172-5.4688c8.6758-9.5234 14.289-22.184 15.09-36.262l1.2148-21.164c1-17.43-5.0391-34.426-16.566-46.633-10.477-11.09-24.426-17.199-39.289-17.199-14.863 0-28.816 6.1055-39.289 17.199-11.523 12.207-17.566 29.203-16.566 46.633l1.2148 21.164c0.80469 14.078 6.418 26.738 15.094 36.262l-18.18 5.4727c-3.1406 0.94922-6.168 2.0742-9.0703 3.3555-3.8633-2.0391-7.9609-3.7188-12.254-5.0156l-13.785-4.1445c6.957-8.3164 11.414-19.012 12.09-30.82l1.0547-18.445c0.89453-15.562-4.5-30.746-14.805-41.656-9.3906-9.9414-21.906-15.418-35.242-15.418-13.332 0-25.852 5.4766-35.242 15.418-10.301 10.91-15.695 26.094-14.805 41.656l1.0547 18.445c0.67578 11.809 5.1328 22.504 12.086 30.82l-13.805 4.1484c-28.691 8.6602-46.887 33.738-44.246 60.996l2.1602 22.062c0.375 3.8242 2.7656 7.1523 6.2734 8.7266 24.012 10.789 54.746 16.734 86.527 16.734 12.066 0 24.016-0.85547 35.574-2.5391 26.648 11.066 59.855 17.129 94.16 17.129 34.305 0 67.508-6.0625 94.152-17.125 11.426 1.6836 23.383 2.5391 35.59 2.5391 31.762 0 62.484-5.9453 86.5-16.734 3.5-1.5703 5.8906-4.8945 6.2734-8.7109l2.1914-22.09c2.6367-27.258-15.562-52.336-44.266-61zm-70.355-80.355c5.3008-5.6133 12.285-8.7031 19.66-8.7031 7.3789 0 14.363 3.0898 19.656 8.6992 6.2773 6.6445 9.5547 16.02 9 25.727l-1.0547 18.445c-0.90625 15.812-13.031 28.199-27.602 28.199-14.57 0-26.699-12.387-27.605-28.195l-1.0547-18.445c-0.55469-9.707 2.7227-19.082 9-25.727zm-133.8-12.805c6.3828-6.7617 14.809-10.484 23.715-10.484s17.332 3.7227 23.715 10.484c7.4961 7.9375 11.414 19.129 10.754 30.695l-1.2148 21.168c-1.082 18.984-15.691 33.852-33.258 33.852-17.559 0-32.168-14.871-33.258-33.852l-1.2148-21.164c-0.65234-11.57 3.2656-22.762 10.762-30.699zm-125.69 12.805c5.3008-5.6133 12.285-8.7031 19.66-8.7031 7.3789 0 14.363 3.0898 19.66 8.7031 6.2773 6.6445 9.5547 16.02 8.9961 25.723l-1.0547 18.445c-0.90625 15.809-13.027 28.195-27.602 28.195-14.574 0-26.695-12.387-27.602-28.195l-1.0547-18.449c-0.55859-9.6992 2.7188-19.074 8.9961-25.719zm42.012 150.36 1.5586 15.863c-7.8359 0.82422-15.832 1.2383-23.898 1.2383-26.34 0-51.664-4.4062-72.102-12.473l-1.5391-15.707c-1.6406-16.949 10.332-32.746 29.105-38.41l30.602-9.1992c4.4219 1.375 9.0977 2.1133 13.926 2.1133 4.8281 0 9.5-0.73828 13.922-2.1133l27.398 8.2344c-13.559 13.289-20.824 31.398-18.973 50.453zm193.46-2.0938-1.8633 19.008c-23.785 9.5547-53.406 14.777-84.207 14.777-30.797 0-60.418-5.2227-84.207-14.777l-1.8633-18.996c-1.957-20.207 12.242-39.02 34.523-45.75l35.559-10.703c5.0664 1.6289 10.438 2.5078 15.988 2.5078 5.5508 0 10.922-0.87891 15.988-2.5078l35.551 10.703c22.297 6.7305 36.496 25.543 34.531 45.738zm117.31-9.0078-1.5586 15.727c-20.438 8.0703-45.758 12.477-72.082 12.477-8.1406 0-16.141-0.41406-23.906-1.2305l1.5586-15.879c1.8516-19.047-5.4102-37.152-18.965-50.438l27.398-8.2383c4.4219 1.375 9.0938 2.1133 13.918 2.1133 4.8281 0 9.5039-0.73828 13.926-2.1172l30.59 9.1953c18.789 5.6719 30.762 21.469 29.121 38.391z" fill="#fff"/>
</svg>
