<?xml version="1.0" encoding="UTF-8"?>
<svg width="752pt" height="752pt" version="1.1" viewBox="0 0 752 752" xmlns="http://www.w3.org/2000/svg">
 <g>
  <path d="m367.95 362.03v-55.883c0-3.2695-2.6523-5.918-5.918-5.918h-55.883c-3.2695 0-5.918 2.6523-5.918 5.918v55.883c0 3.2695 2.6523 5.918 5.918 5.918h55.883c3.2656 0 5.918-2.6445 5.918-5.918zm-11.84-5.9219h-44.043v-44.043h44.043z"/>
  <path d="m445.86 328.17h-55.887c-3.2695 0-5.918 2.6523-5.918 5.918l-0.003906 49.965h-49.957c-3.2695 0-5.918 2.6523-5.918 5.918v55.883c0 3.2695 2.6523 5.918 5.918 5.918h55.883l55.883 0.003907c3.2695 0 5.918-2.6523 5.918-5.918v-111.77c0-3.2734-2.6445-5.9219-5.918-5.9219zm-49.969 11.84h44.047v44.043h-44.047zm-55.879 55.883h44.043v44.043h-44.043zm99.926 44.043h-44.047v-44.043h44.047z"/>
 </g>
</svg>
