<?xml version="1.0" encoding="UTF-8"?>
<svg width="752pt" height="752pt" version="1.1" viewBox="0 0 752 752" xmlns="http://www.w3.org/2000/svg">
 <g fill="#fff">
  <path d="m371.27 392.53c31.137-0.50781 62.184-3.5664 92.82-9.1406 1.0898-0.23828 1.8945-3.9297 1.8945-8.3828 0-4.4531-0.80469-8.0977-1.8945-8.3828h-0.28516 0.003907c-24.867-4.3242-49.988-7.0117-75.207-8.0508-0.38281-31.965-3.4531-63.836-9.1875-95.285 0-1.043-3.7422-1.8945-8.1445-1.8945-4.4062 0-8.0039 0.85156-8.1445 1.8945v0.33203c-6.8203 36.742-9.9922 74.066-9.4727 111.43v0.56641c0.074218 4.5859 1.9766 8.9492 5.2852 12.125 3.3086 3.1758 7.75 4.8984 12.332 4.7852z"/>
  <path d="m197.93 244.44c-1.4297-19.176-4.0078-38.246-7.7188-57.113-0.28516-0.75781-3.9297-1.7539-8.3828-1.7539s-8.0977 0.75781-8.3828 1.7539v0.23828-0.003906c-6.0781 30.535-9.1523 61.594-9.1875 92.727-0.011719 4.6641 1.8359 9.1406 5.1328 12.438 3.2969 3.3008 7.7734 5.1484 12.438 5.1328 31.242-0.078125 62.398-3.25 93.012-9.4688 0.94531 0 1.7031-3.7891 1.7031-8.1914 0-4.4062-0.75781-8.0039-1.7031-8.1445h-0.28516v-0.003907c-22.695-4.5586-45.691-7.4727-68.809-8.7148 26.371-36.871 64.582-63.59 108.27-75.699 43.684-12.105 90.199-8.875 131.79 9.1602 41.984 18.664 76.117 51.438 96.469 92.633 20.082 41.023 24.984 87.832 13.832 132.12-11.148 44.293-37.625 83.203-74.734 109.83-38.102 26.746-84.438 39.133-130.8 34.965-46.359-4.168-89.746-24.621-122.46-57.73-32.719-33.109-52.652-76.738-56.27-123.14-0.042969-5.1992-3.8203-9.6133-8.9492-10.465-4.4531 0-7.8633 4.9727-7.8125 11.461v1.7539l-0.003906-0.003906c1.5156 52.379 22.113 102.4 57.922 140.66 36.949 39 86.758 63.32 140.23 68.473 53.477 5.1523 107.01-9.2109 150.73-40.441 43.715-31.23 74.66-77.215 87.125-129.47 12.465-52.262 5.6094-107.26-19.305-154.86-24.969-47.473-66.113-84.434-115.98-104.19-24.598-9.8281-50.805-15-77.289-15.25-26.281-0.57422-52.438 3.7305-77.148 12.695-41.711 14.996-77.812 42.438-103.43 78.613z"/>
 </g>
</svg>
