<?xml version="1.0" encoding="UTF-8"?>
<svg width="752pt" height="752pt" version="1.1" viewBox="0 0 752 752" xmlns="http://www.w3.org/2000/svg">
 <path d="m391.34 168.53c-8.8398-7.5156-21.828-7.5156-30.668 0l-189.43 161.02c-9.9648 8.4727-11.176 23.414-2.707 33.379 8.1562 9.5938 22.312 11.074 32.25 3.6094v198.9c0 13.078 10.602 23.68 23.68 23.68h75.77c13.078 0 23.68-10.602 23.68-23.68v-104.19c0-13.078 10.602-23.68 23.68-23.68h56.832c13.074 0 23.676 10.602 23.676 23.68v104.19c0 13.078 10.602 23.68 23.68 23.68h75.773c13.078 0 23.68-10.602 23.68-23.68v-198.9c9.9336 7.4648 24.094 5.9844 32.25-3.6094 8.4688-9.9648 7.2578-24.906-2.707-33.379z" fill="#fff" fill-rule="evenodd"/>
</svg>
