<?xml version="1.0" encoding="UTF-8"?>
<svg width="752pt" height="752pt" version="1.1" viewBox="0 0 752 752" xmlns="http://www.w3.org/2000/svg">
 <defs>
  <clipPath id="b">
   <path d="m139.21 261h333.79v298h-333.79z"/>
  </clipPath>
  <clipPath id="a">
   <path d="m309 193h303.79v286h-303.79z"/>
  </clipPath>
 </defs>
 <g>
  <g clip-path="url(#b)">
   <path d="m159.19 495.32h23.492v47.312c0 17.805 9.5 21.34 20.895 7.6602l46.094-54.973h202.78c10.609 0 19.746-9.5078 19.746-20.117l0.003907-46.48h-150.96c-23.254 0-43.289-19.793-43.289-43.059l0.003906-124.36h-118.77c-10.609 0-19.98 7.9375-19.98 18.547v195.35c0 10.609 9.3711 20.117 19.98 20.117z" fill="#fff"/>
  </g>
  <g clip-path="url(#a)">
   <path d="m601.69 193.79h-281.19c-2.9102-0.074218-5.7266 1.0273-7.8125 3.0547-2.0898 2.0273-3.2734 4.8086-3.2891 7.7188v182.22c-0.023438 6.1953 4.9102 11.273 11.102 11.422h172.56l60.121 72.082c11.395 13.68 20.719 10.176 20.719-7.6602v-64.422h27.75c6.1914-0.14844 11.125-5.2266 11.098-11.422v-182.22c-0.011718-2.9023-1.1914-5.6797-3.2734-7.7031-2.0781-2.0273-4.8867-3.1328-7.7891-3.0703zm-212.45 123.25c-5.2891 0-10.363-2.1016-14.102-5.8398-3.7422-3.7422-5.8398-8.8125-5.8398-14.102s2.0977-10.363 5.8398-14.102c3.7383-3.7422 8.8125-5.8398 14.102-5.8398 5.2891 0 10.359 2.0977 14.102 5.8398 3.7383 3.7383 5.8398 8.8125 5.8398 14.102s-2.1016 10.359-5.8398 14.102c-3.7422 3.7383-8.8125 5.8398-14.102 5.8398zm76.625 0c-5.2891 0-10.363-2.1016-14.102-5.8398-3.7422-3.7422-5.8438-8.8125-5.8438-14.102s2.1016-10.363 5.8438-14.102c3.7383-3.7422 8.8125-5.8398 14.102-5.8398 5.2891 0 10.359 2.0977 14.098 5.8398 3.7422 3.7383 5.8438 8.8125 5.8438 14.102 0 5.2852-2.1016 10.359-5.8398 14.098-3.7383 3.7383-8.8086 5.8398-14.094 5.8438zm76.625 0h-0.003906c-5.2891 0-10.359-2.1016-14.102-5.8398-3.7383-3.7422-5.8398-8.8125-5.8398-14.102s2.1016-10.363 5.8398-14.102c3.7422-3.7422 8.8125-5.8398 14.102-5.8398s10.363 2.0977 14.102 5.8398c3.7422 3.7383 5.8398 8.8125 5.8398 14.102 0 5.2852-2.0977 10.359-5.8359 14.098-3.7383 3.7383-8.8086 5.8398-14.094 5.8438z" fill="#fff"/>
  </g>
 </g>
</svg>
