<?xml version="1.0" encoding="UTF-8"?>
<svg width="752pt" height="752pt" version="1.1" viewBox="0 0 752 752" xmlns="http://www.w3.org/2000/svg">
 <g>
  <path d="m519.73 480.14c-4.8008 0-8.7109-3.9102-8.7109-8.7148v-97.074c0-36.023-14.043-69.922-39.551-95.48-26.387-26.34-61.438-40.305-98.676-39.5-72.68 1.6953-131.8 63.375-131.8 137.49v94.566c0 4.8008-3.9062 8.7148-8.8047 8.7148-16.512 0-29.945 13.434-29.945 29.941 0 14.777 10.965 27.508 25.504 29.617 37.621 5.4648 75.438 8.8398 113.31 10.125v4.4375c0 19.273 15.684 34.953 34.957 34.953 19.273 0 34.957-15.68 34.957-34.953l-0.003907-4.4336c37.867-1.2852 75.691-4.6602 113.3-10.125 14.543-2.1094 25.508-14.84 25.508-29.617 0.003906-16.512-13.43-29.945-30.039-29.945zm-131.5 74.125c0 6.7383-5.4844 12.223-12.223 12.223s-12.223-5.4844-12.223-12.223v-3.918c4.0742 0.046875 8.1484 0.074219 12.223 0.074219s8.1484-0.027344 12.223-0.074219zm132.77-37.062c-96.215 13.98-193.78 13.98-289.99 0-3.4414-0.5-6.0352-3.5586-6.0352-7.1211 0-3.9766 3.2344-7.2109 7.3086-7.2109 17.336 0 31.441-14.105 31.441-31.445v-94.566c0-61.867 49.164-113.35 109.6-114.76 0.90234-0.023437 1.8047-0.03125 2.7031-0.03125 29.973 0 58.074 11.621 79.371 32.879 21.211 21.246 32.891 49.445 32.891 79.402v97.074c0 17.34 14.105 31.445 31.543 31.445 3.9766 0 7.2109 3.2344 7.2109 7.2109 0 3.5625-2.5977 6.6211-6.0391 7.1211z"/>
  <path d="m600.29 294.64c-11.844-33.348-30.715-63.152-56.105-88.594-16.855-16.801-35.859-30.906-56.48-41.914-5.5312-2.957-12.422-0.86719-15.383 4.6719-2.957 5.5391-0.86328 12.426 4.6758 15.383 18.656 9.957 35.859 22.73 51.117 37.938 22.973 23.016 40.047 49.973 50.754 80.125 1.6562 4.6562 6.0352 7.5625 10.711 7.5625 1.2617 0 2.5469-0.21484 3.8047-0.65625 5.9141-2.0977 9.0078-8.6016 6.9062-14.516z"/>
  <path d="m507.51 242.75c-15.586-15.594-33.449-28.477-53.09-38.301-5.6172-2.8164-12.441-0.53516-15.25 5.0781-2.8086 5.6133-0.53125 12.441 5.082 15.25 17.449 8.7305 33.324 20.184 47.172 34.035 19.309 19.352 33.664 41.992 42.672 67.289 1.6562 4.6523 6.0352 7.5547 10.711 7.5547 1.2656 0 2.5547-0.21484 3.8164-0.66406 5.9141-2.1055 9-8.6055 6.8945-14.52-10.148-28.484-26.297-53.961-48.008-75.723z"/>
  <path d="m275 184.18c5.5391-2.957 7.6328-9.8438 4.6758-15.383-2.9531-5.5352-9.8359-7.625-15.383-4.6758-20.621 11.008-39.625 25.117-56.504 41.945-25.371 25.422-44.238 55.223-56.082 88.566-2.1016 5.9141 0.99219 12.418 6.9062 14.516 1.2578 0.44531 2.543 0.65625 3.8047 0.65625 4.6758 0 9.0586-2.9062 10.711-7.5625 10.707-30.145 27.781-57.098 50.73-80.098 15.281-15.234 32.484-28.008 51.141-37.965z"/>
  <path d="m207.2 333.66c4.6719 0 9.0508-2.9023 10.711-7.5547 9.0078-25.297 23.363-47.934 42.66-67.281 13.871-13.867 29.746-25.32 47.184-34.035 5.6133-2.8086 7.8945-9.6367 5.0859-15.254-2.8047-5.6133-9.6367-7.8945-15.25-5.0859-19.629 9.8125-37.488 22.699-53.102 38.309-21.699 21.75-37.848 47.23-47.992 75.719-2.1055 5.9141 0.98047 12.418 6.8945 14.52 1.2539 0.44922 2.543 0.66406 3.8086 0.66406z"/>
 </g>
</svg>
