<?xml version="1.0" encoding="UTF-8"?>
<svg width="752pt" height="752pt" version="1.1" viewBox="0 0 752 752" xmlns="http://www.w3.org/2000/svg">
 <g fill="#fff">
  <path d="m514.62 380.21c-0.011719-13.723-4.6094-27.047-13.062-37.855-8.4492-10.812-20.27-18.488-33.582-21.812v-38.93c0-32.859-17.531-63.219-45.988-79.648-28.453-16.43-63.512-16.43-91.969 0-28.453 16.43-45.984 46.789-45.984 79.648v38.977c-13.312 3.3242-25.133 11-33.586 21.812-8.4492 10.812-13.047 24.137-13.062 37.855v120.53c0 16.328 6.4883 31.988 18.035 43.535 11.543 11.547 27.203 18.031 43.531 18.031h154.11c16.328 0 31.984-6.4844 43.531-18.031 11.547-11.547 18.031-27.207 18.031-43.535zm-138.62-171.67c19.371 0.023437 37.938 7.7344 51.629 21.434 13.691 13.699 21.387 32.273 21.398 51.641v37.082h-146.05v-37.082c0.011719-19.367 7.707-37.941 21.398-51.641 13.691-13.699 32.258-21.41 51.625-21.434zm119.68 292.25c0 11.305-4.4922 22.145-12.484 30.141-7.9922 7.9922-18.836 12.484-30.137 12.484h-154.11c-11.305 0-22.145-4.4922-30.137-12.484-7.9961-7.9961-12.484-18.836-12.484-30.141v-120.57c0-11.301 4.4883-22.145 12.484-30.137 7.9922-7.9922 18.832-12.484 30.137-12.484h154.11c11.301 0 22.145 4.4922 30.137 12.484 7.9922 7.9922 12.484 18.836 12.484 30.137z"/>
  <path d="m376 407.5c-10.805 0.003906-20.941 5.2266-27.215 14.027-6.2695 8.8008-7.9023 20.086-4.3789 30.305 3.5195 10.215 11.762 18.098 22.125 21.164v32.25c0 5.2305 4.2383 9.4727 9.4688 9.4727 5.2344 0 9.4727-4.2422 9.4727-9.4727v-32.25c10.363-3.0664 18.605-10.949 22.125-21.164 3.5234-10.219 1.8906-21.504-4.3828-30.305-6.2695-8.8008-16.406-14.023-27.215-14.027zm0 47.926c-3.8438 0-7.5273-1.5273-10.246-4.2461s-4.2422-6.4023-4.2422-10.246 1.5234-7.5312 4.2422-10.246c2.7188-2.7188 6.4023-4.2461 10.246-4.2461s7.5312 1.5273 10.25 4.2461c2.7148 2.7148 4.2422 6.4023 4.2422 10.246s-1.5273 7.5273-4.2422 10.246c-2.7188 2.7188-6.4062 4.2461-10.25 4.2461z"/>
 </g>
</svg>
