<?xml version="1.0" encoding="UTF-8"?>
<svg width="752pt" height="752pt" version="1.1" viewBox="0 0 752 752" xmlns="http://www.w3.org/2000/svg">
 <path d="m201.8 193.87c-0.003907-2.3711 1.4258-4.5117 3.6172-5.418 2.1875-0.91016 4.7109-0.41016 6.3906 1.2695 1.6758 1.6758 2.1758 4.1992 1.2695 6.3906-0.91016 2.1914-3.0508 3.6172-5.4219 3.6172-3.2305-0.007813-5.8516-2.625-5.8555-5.8594zm45.973 0c0.003906 2.3711 1.4336 4.5039 3.6211 5.4062s4.707 0.39844 6.3789-1.2773c1.6758-1.6758 2.1719-4.1953 1.2656-6.3828s-3.043-3.6133-5.4102-3.6133c-1.5547 0.003906-3.0469 0.62109-4.1445 1.7227-1.0977 1.0977-1.7148 2.5898-1.7109 4.1445zm45.973 0h-0.003906c0.003906 2.3711 1.4336 4.5039 3.625 5.4062 2.1875 0.90234 4.707 0.39844 6.3789-1.2773 1.6758-1.6758 2.1719-4.1953 1.2656-6.3828s-3.043-3.6133-5.4102-3.6133c-1.5547 0.003906-3.0469 0.62109-4.1445 1.7227-1.0977 1.0977-1.7148 2.5898-1.7148 4.1445zm-15.238 317.95h194.98c1.9219 0 3.7656-0.76172 5.1211-2.1211 1.3594-1.3594 2.125-3.1992 2.125-5.1211v-61.781c0-24.824-18.941-42.164-46.016-42.164h-0.003906c-1.8945 0-3.7148 0.74219-5.0703 2.0703-14.324 14.039-33.586 21.902-53.645 21.902s-39.316-7.8633-53.645-21.902c-1.3516-1.3281-3.1719-2.0703-5.0664-2.0703-27.094 0-46.016 17.34-46.016 42.164l-0.003907 61.781c0.003907 4 3.2461 7.2383 7.2422 7.2422zm329.3-321.47v371.3c-0.015625 12.238-4.8828 23.973-13.535 32.625-8.6523 8.6523-20.387 13.52-32.625 13.535h-371.3c-12.238-0.015625-23.969-4.8828-32.621-13.535-8.6523-8.6523-13.52-20.387-13.535-32.625v-371.3c0.015626-12.238 4.8828-23.969 13.535-32.621 8.6523-8.6523 20.383-13.52 32.621-13.535h371.3c12.238 0.015626 23.973 4.8828 32.625 13.535 8.6523 8.6523 13.52 20.383 13.535 32.621zm-80.391 6.1484v10.539c0 4 3.2422 7.2422 7.2422 7.2422s7.2461-3.2422 7.2461-7.2422v-10.539h10.539-0.003906c1.957 0.050781 3.8477-0.69141 5.25-2.0547 1.3984-1.3633 2.1914-3.2383 2.1914-5.1914 0-1.957-0.79297-3.8281-2.1914-5.1914-1.4023-1.3672-3.293-2.1055-5.25-2.0547h-10.535v-10.539c0-4-3.2461-7.2422-7.2461-7.2422s-7.2422 3.2422-7.2422 7.2422v10.539h-10.535c-3.9258 0.10156-7.0586 3.3164-7.0586 7.2461 0 3.9297 3.1328 7.1406 7.0586 7.2461zm-227.82-22.98c-5.3984-0.003906-10.574 2.1406-14.391 5.957-3.8164 3.8125-5.9648 8.9883-5.9648 14.387 0 5.3945 2.1406 10.57 5.957 14.391 3.8164 3.8164 8.9922 5.9609 14.387 5.9609 5.3984 0.003906 10.574-2.1406 14.391-5.957 3.8164-3.8125 5.9609-8.9883 5.9648-14.387-0.003906-5.3945-2.1484-10.566-5.9609-14.383-3.8125-3.8164-8.9844-5.9609-14.379-5.9688zm-45.973 0c-5.3984 0-10.574 2.1406-14.391 5.957-3.8164 3.8164-5.957 8.9922-5.9609 14.391 0 5.3945 2.1445 10.57 5.9609 14.387 3.8164 3.8164 8.9883 5.9609 14.387 5.9609 5.3945 0.003906 10.574-2.1406 14.391-5.957 3.8164-3.8125 5.9609-8.9883 5.9609-14.387-0.003906-5.3945-2.1484-10.566-5.9648-14.383-3.8125-3.8164-8.9844-5.9609-14.379-5.9688zm-66.312 20.352c0 5.3984 2.1484 10.574 5.9648 14.387 3.8164 3.8164 8.9922 5.9609 14.391 5.957 5.3945 0 10.57-2.1445 14.387-5.9609 3.8164-3.8203 5.957-8.9961 5.957-14.391-0.003906-5.3984-2.1484-10.574-5.9648-14.387-3.8164-3.8164-8.9922-5.9609-14.391-5.957-5.3945 0.003907-10.566 2.1523-14.383 5.9688-3.8125 3.8164-5.957 8.9883-5.9609 14.383zm406 40.438-434.64 0.003906v327.34c0.007812 8.3984 3.3477 16.449 9.2852 22.387s13.988 9.2773 22.383 9.2852h371.3c8.3984-0.007812 16.449-3.3477 22.387-9.2852s9.2773-13.988 9.2852-22.387zm-346.53 318.01h88.332c0.019531 5.3008 2.1406 10.379 5.8945 14.121 3.7539 3.7422 8.8398 5.8438 14.141 5.8516h41.715c5.293-0.015624 10.371-2.1211 14.117-5.8633 3.75-3.7422 5.8633-8.8125 5.8867-14.109h88.332c4 0 7.2422-3.2422 7.2422-7.2422s-3.2422-7.2422-7.2422-7.2422h-88.332c-0.023437-5.3008-2.1445-10.375-5.8984-14.117-3.7539-3.7422-8.8359-5.8438-14.137-5.8516h-41.699c-5.2969 0.011719-10.375 2.1172-14.125 5.8555-3.75 3.7422-5.8711 8.8164-5.8945 14.113h-88.332c-4 0-7.2422 3.2422-7.2422 7.2422s3.2422 7.2422 7.2422 7.2422zm58.297-204.36c0.003906-18.797 7.4766-36.824 20.773-50.113 13.297-13.289 31.324-20.754 50.121-20.75s36.824 7.4688 50.117 20.762c13.293 13.293 20.762 31.32 20.762 50.117 0.003907 18.797-7.4609 36.828-20.75 50.121-13.289 13.297-31.312 20.77-50.113 20.773-18.801-0.011719-36.828-7.4883-50.125-20.785-13.297-13.293-20.773-31.324-20.785-50.125zm14.488 0h-0.003906c0 14.957 5.9414 29.301 16.52 39.879 10.574 10.578 24.918 16.52 39.875 16.523 14.957 0 29.301-5.9375 39.879-16.512 10.582-10.574 16.527-24.918 16.531-39.875 0.003906-14.957-5.9336-29.305-16.508-39.883-10.57-10.582-24.914-16.527-39.871-16.535-14.957 0.011718-29.301 5.9531-39.879 16.527-10.578 10.578-16.531 24.918-16.547 39.875zm214.16 47.43-0.003906 126.07c0 4 3.2422 7.2422 7.2422 7.2422s7.2422-3.2422 7.2422-7.2422v-126.08c8.4492-2.1602 15.492-7.9766 19.207-15.867 3.7148-7.8906 3.7148-17.023 0-24.914-3.7148-7.8867-10.758-13.707-19.207-15.867v-59.82c0-4-3.2422-7.2422-7.2422-7.2422s-7.2422 3.2422-7.2422 7.2422v59.82c-8.4492 2.1602-15.492 7.9805-19.207 15.867-3.7148 7.8906-3.7148 17.023 0 24.914s10.758 13.707 19.207 15.867z" fill="#fff"/>
</svg>
