<?xml version="1.0" encoding="UTF-8"?>
<svg width="752pt" height="752pt" version="1.1" viewBox="0 0 752 752" xmlns="http://www.w3.org/2000/svg">
 <g fill="#fff" fill-rule="evenodd">
  <path d="m295.84 188.6c9.5234 1.1172 18.629 3.6055 27.117 7.2539l9.6523-16.719 19.918 11.5-9.6602 16.73c7.5273 5.6289 14.215 12.316 19.848 19.844l16.727-9.6562 11.5 19.918-16.711 9.6484c3.6523 8.4883 6.1367 17.594 7.2539 27.121h19.309v23h-19.316c-1.1172 9.5234-3.6055 18.629-7.2539 27.117l16.719 9.6523-11.5 19.918-16.73-9.6602c-5.6289 7.5273-12.316 14.215-19.844 19.848l9.6562 16.727-19.918 11.5-9.6484-16.711c-8.4883 3.6523-17.594 6.1367-27.121 7.2539v19.309h-23v-19.316c-9.5234-1.1172-18.629-3.6055-27.117-7.2539l-9.6523 16.719-19.918-11.5 9.6602-16.73c-7.5273-5.6289-14.215-12.32-19.848-19.844l-16.727 9.6562-11.5-19.918 16.711-9.6484c-3.6523-8.4883-6.1367-17.594-7.2539-27.121h-19.309v-23h19.309c1.1172-9.5273 3.6055-18.633 7.2578-27.117l-16.711-9.6484 11.5-19.918 16.727 9.6562c5.6289-7.5273 12.32-14.215 19.848-19.844l-9.6562-16.727 19.918-11.5 9.6484 16.715c8.4883-3.6484 17.594-6.1367 27.117-7.25v-19.312h23v19.312zm-11.5 41.535c30.711 0 55.605 24.895 55.605 55.605 0 30.711-24.895 55.605-55.605 55.605-30.711 0-55.605-24.895-55.605-55.605 0-30.711 24.895-55.605 55.605-55.605z"/>
  <path d="m504.91 376.4c8.9102 3.543 17.062 8.3047 24.312 14.027l13.648-13.648 16.262 16.262-13.66 13.66c5.8125 7.3867 10.543 15.578 14.035 24.305l18.656-5 5.9531 22.215-18.637 4.9922c1.332 9.1445 1.375 18.582-0.011718 28.074l18.648 4.9961-5.9531 22.215-18.656-5c-3.543 8.9102-8.3047 17.062-14.027 24.312l13.648 13.652-16.262 16.262-13.66-13.66c-7.3867 5.8125-15.578 10.543-24.305 14.035l5 18.656-22.215 5.9531-4.9922-18.637c-9.1445 1.332-18.582 1.375-28.074-0.011719l-4.9961 18.648-22.215-5.9531 5-18.656c-8.9102-3.543-17.062-8.3047-24.312-14.027l-13.652 13.648-16.262-16.262 13.66-13.66c-5.8125-7.3867-10.543-15.578-14.035-24.305l-18.656 5-5.9531-22.215 18.637-4.9922c-1.332-9.1445-1.375-18.582 0.011719-28.074l-18.648-4.9961 5.9531-22.215 18.648 4.9961c3.543-8.9141 8.3047-17.062 14.027-24.316l-13.645-13.645 16.262-16.266 13.656 13.656c7.3867-5.8125 15.578-10.543 24.309-14.031l-5-18.656 22.215-5.9531 4.9961 18.641c9.1406-1.3281 18.582-1.375 28.07 0.015624l5-18.656 22.215 5.9531-5 18.656zm-21.859 37.145c29.664 7.9492 47.266 38.438 39.32 68.102-7.9492 29.664-38.438 47.266-68.102 39.32-29.664-7.9492-47.27-38.438-39.32-68.102 7.9492-29.664 38.438-47.266 68.102-39.32z"/>
 </g>
</svg>
