<?xml version="1.0" encoding="UTF-8"?>
<svg width="752pt" height="752pt" version="1.1" viewBox="0 0 752 752" xmlns="http://www.w3.org/2000/svg">
 <path d="m581.91 316.14-17.43 18.941-13.828 15.156-52.664 56.828h0.003906c-1.8359 1.9141-4.3594 3.0078-7.0078 3.0312h-0.94922c-3.0078-0.35938-5.6758-2.1133-7.1992-4.7344l-27.09-45.652h0.003906c-2.6406-4.5117-1.2148-10.301 3.2188-13.07 4.5586-2.6055 10.363-1.0898 13.07 3.4102l20.648 35.422 47.547-51.906 12.883-14.02 14.777-16.102-0.003907 0.003907c3.5586-3.8711 9.582-4.125 13.453-0.57031 3.8711 3.5586 4.125 9.582 0.56641 13.453zm-8.1445 47.168c0.09375-0.62891 0.09375-1.2656 0-1.8945-0.90234-4.4102-4.7812-7.5781-9.2812-7.5781-2.4805-0.054688-4.875 0.90234-6.6328 2.6523l-1.3242 1.5156c-1.0117 1.5859-1.5391 3.4297-1.5156 5.3047-0.09375 0.62891-0.09375 1.2656 0 1.8945 0.70703 3.5547 1.0234 7.1758 0.94531 10.797 0.003906 12.52-3.5586 24.777-10.27 35.344-6.707 10.566-16.289 19.004-27.617 24.328-5.8945 3.2656-12.297 5.5078-18.941 6.6328-3.1523 0.28516-6.3203 0.28516-9.4727 0-23.688 0-45.574-12.641-57.418-33.152-11.844-20.516-11.844-45.789 0-66.301 11.844-20.516 33.73-33.152 57.418-33.152 3.1523-0.28906 6.3203-0.28906 9.4727 0 6.5977 0.88672 13 2.8711 18.941 5.875 3.1562 1.4766 6.1953 3.1875 9.0938 5.1133 1.5391 1.1211 3.3984 1.7188 5.3047 1.7031 2.5508-0.042969 4.9883-1.0625 6.8203-2.8398l1.1367-1.3242v-0.003906c0.98047-1.5938 1.5039-3.4297 1.5156-5.3008-0.43359-3.0352-2.2539-5.6992-4.9258-7.1992-5.8594-4.1445-12.227-7.5195-18.945-10.039-6.082-2.4258-12.445-4.0781-18.941-4.9258-3.1562-0.19531-6.3164-0.19531-9.4727 0-30.453 0-58.598 16.246-73.824 42.621-15.227 26.375-15.227 58.871 0 85.246 15.227 26.375 43.371 42.621 73.824 42.621 3.1562 0.19531 6.3164 0.19531 9.4727 0 6.4688-0.66406 12.832-2.1289 18.941-4.3555 16.598-5.8984 30.965-16.781 41.141-31.16 10.172-14.375 15.652-31.547 15.691-49.16 0.039062-4.4453-0.33984-8.8867-1.1367-13.262zm-74.637 164.24c0 7.5352-2.9922 14.766-8.3242 20.094-5.3281 5.3281-12.555 8.3203-20.09 8.3203h-246.26c-7.5391 0-14.766-2.9922-20.094-8.3203s-8.3242-12.559-8.3242-20.094v-303.09c0-7.5391 2.9961-14.766 8.3242-20.094s12.555-8.3242 20.094-8.3242h246.26c7.5352 0 14.762 2.9961 20.09 8.3242 5.332 5.3281 8.3242 12.555 8.3242 20.094v47.355c6.418 0.45703 12.77 1.6016 18.941 3.4102v-50.766c0-12.562-4.9883-24.605-13.871-33.488-8.8789-8.8828-20.926-13.871-33.484-13.871h-246.26c-12.562 0-24.605 4.9883-33.488 13.871s-13.871 20.926-13.871 33.488v303.09-0.003906c0 12.562 4.9883 24.605 13.871 33.488 8.8828 8.8789 20.926 13.871 33.488 13.871h246.26c12.559 0 24.605-4.9922 33.484-13.871 8.8828-8.8828 13.871-20.926 13.871-33.488v-51.336c-6.1523 2.0039-12.504 3.3359-18.941 3.9766zm-56.828-265.21v0.003906c0-2.5156-1-4.9219-2.7773-6.6992-1.7734-1.7773-4.1836-2.7734-6.6953-2.7734h-170.49c-5.2344 0-9.4727 4.2383-9.4727 9.4727 0 5.2305 4.2383 9.4688 9.4727 9.4688h170.49c2.5117 0 4.9219-0.99609 6.6953-2.7734 1.7773-1.7773 2.7773-4.1836 2.7773-6.6953zm-179.96 85.246h75.773-0.003907c5.2344 0 9.4727-4.2383 9.4727-9.4727 0-5.2305-4.2383-9.4688-9.4727-9.4688h-75.773 0.003906c-5.2344 0-9.4727 4.2383-9.4727 9.4688 0 5.2344 4.2383 9.4727 9.4727 9.4727zm94.715 56.828h-94.715v0.003907c-5.2344 0-9.4727 4.2383-9.4727 9.4688s4.2383 9.4727 9.4727 9.4727h94.715c5.2305 0 9.4727-4.2422 9.4727-9.4727s-4.2422-9.4688-9.4727-9.4688zm-104.19 85.246c0 2.5117 0.99609 4.9219 2.7734 6.6992 1.7773 1.7734 4.1836 2.7734 6.6992 2.7734h170.49c5.2305 0 9.4727-4.2422 9.4727-9.4727 0-5.2305-4.2422-9.4727-9.4727-9.4727h-170.49c-5.2344 0-9.4727 4.2422-9.4727 9.4727z" fill="#fff"/>
</svg>
